<?xml version="1.0" encoding="UTF-8" standalone="no"?>
<!-- Created with Inkscape (http://www.inkscape.org/) -->

<svg
   xmlns:dc="http://purl.org/dc/elements/1.1/"
   xmlns:cc="http://creativecommons.org/ns#"
   xmlns:rdf="http://www.w3.org/1999/02/22-rdf-syntax-ns#"
   xmlns:svg="http://www.w3.org/2000/svg"
   xmlns="http://www.w3.org/2000/svg"
   xmlns:xlink="http://www.w3.org/1999/xlink"
   xmlns:sodipodi="http://sodipodi.sourceforge.net/DTD/sodipodi-0.dtd"
   xmlns:inkscape="http://www.inkscape.org/namespaces/inkscape"
   width="125"
   height="13"
   id="svg2"
   version="1.1"
   inkscape:version="0.48.3.1 r9886"
   sodipodi:docname="ground.svg"
   inkscape:export-filename="/home/mauve/dev/physicsgames/textures/ground.png"
   inkscape:export-xdpi="900"
   inkscape:export-ydpi="900">
  <defs
     id="defs4">
    <linearGradient
       inkscape:collect="always"
       id="linearGradient3038">
      <stop
         style="stop-color:#a05a2c;stop-opacity:1;"
         offset="0"
         id="stop3040" />
      <stop
         style="stop-color:#2b1100;stop-opacity:1"
         offset="1"
         id="stop3042" />
    </linearGradient>
    <linearGradient
       inkscape:collect="always"
       xlink:href="#linearGradient3038"
       id="linearGradient3044"
       x1="16"
       y1="30.9"
       x2="16"
       y2="44.609119"
       gradientUnits="userSpaceOnUse" />
  </defs>
  <sodipodi:namedview
     id="base"
     pagecolor="#ffffff"
     bordercolor="#666666"
     borderopacity="1.0"
     inkscape:pageopacity="0.0"
     inkscape:pageshadow="2"
     inkscape:zoom="8"
     inkscape:cx="35.00975"
     inkscape:cy="2.0704867"
     inkscape:document-units="px"
     inkscape:current-layer="layer1"
     showgrid="false"
     inkscape:window-width="1301"
     inkscape:window-height="744"
     inkscape:window-x="65"
     inkscape:window-y="24"
     inkscape:window-maximized="1" />
  <metadata
     id="metadata7">
    <rdf:RDF>
      <cc:Work
         rdf:about="">
        <dc:format>image/svg+xml</dc:format>
        <dc:type
           rdf:resource="http://purl.org/dc/dcmitype/StillImage" />
        <dc:title></dc:title>
      </cc:Work>
    </rdf:RDF>
  </metadata>
  <g
     inkscape:label="Layer 1"
     inkscape:groupmode="layer"
     id="layer1"
     transform="translate(0,-1039.3622)">
    <path
       style="fill:url(#linearGradient3044);fill-opacity:1;stroke:none"
       d="m 39.71875,27.96875 0,12.0625 81.46875,0.09375 3.625,0.125 0.125,-9.96875 -3.75,-0.1875 0,2.90625 -60.5625,0.15625 0,0.03125 -5.8125,-1.65625 0,-0.03125 L 47,27.96875 47,28 z m -5.9375,0.21875 -7.25,1.875 0,0.03125 -26.71875,0.1875 0.125,9.9375 26.71875,0 0.15625,0 7.09375,0.09375 z"
       transform="translate(0,1012.3622)"
       id="path2985"
       inkscape:connector-curvature="0"
       sodipodi:nodetypes="ccccccccccccccccccccccc" />
    <path
       style="font-size:medium;font-style:normal;font-variant:normal;font-weight:normal;font-stretch:normal;text-indent:0;text-align:start;text-decoration:none;line-height:normal;letter-spacing:normal;word-spacing:normal;text-transform:none;direction:ltr;block-progression:tb;writing-mode:lr-tb;text-anchor:start;baseline-shift:baseline;color:#000000;fill:#44aa00;fill-opacity:1;stroke:#338000;stroke-width:0.25;marker:none;visibility:visible;display:inline;overflow:visible;enable-background:accumulate;font-family:Sans;-inkscape-font-specification:Sans"
       d="m 39.625,1039.831 c -0.261813,0.024 -0.477705,0.2851 -0.45316,0.5469 0.02454,0.2618 0.285101,0.4777 0.54691,0.4531 l 7.1875,0.031 7.59375,3.4375 0.03125,0 c 0.02008,0.012 0.04098,0.022 0.0625,0.031 0.03013,0.013 0.06158,0.024 0.09375,0.031 l 5.8125,1.6563 c 0.0912,0.027 0.190053,0.027 0.28125,0 l 0.0625,0 60.34375,-0.1563 0.5,-0.5 -1,-0.5 -60.0625,0.1563 c -0.02081,0 -0.04169,0 -0.0625,0 l -0.03125,0 -5.40625,-1.5313 c -0.01,-0.011 -0.02038,-0.021 -0.03125,-0.031 -0.01896,-0.022 -0.0399,-0.043 -0.0625,-0.062 l -7.8125,-3.5313 c -0.109842,-0.04 -0.233908,-0.04 -0.34375,0 l -0.0625,0 -7.09375,-0.031 c -0.03116,0 -0.06259,0 -0.09375,0 z m -5.9375,0.2187 c -0.01087,0.01 -0.0213,0.02 -0.03125,0.031 l -7.25,1.875 c -0.02081,0 -0.04169,0 -0.0625,0 l -26.53125,0.1875 c -0.26415631,0 -0.507121,0.2358 -0.507121,0.5 0,0.2642 0.24296469,0.5037 0.507121,0.5 l 26.71875,-0.1875 c 0.100333,0 0.199782,-0.035 0.28125,-0.094 0.01086,-0.01 0.02129,-0.02 0.03125,-0.031 l 7.0625,-1.8125 c 0.456756,-0.1614 0.263049,-1.0193 -0.21875,-0.9688 z"
       id="path3046"
       inkscape:connector-curvature="0"
       sodipodi:nodetypes="cscccccccccccccccccccccccccccccsccccccc" />
    <path
       style="color:#000000;fill:#454837;fill-opacity:1;fill-rule:evenodd;stroke:none;stroke-width:1px;marker:none;visibility:visible;display:inline;overflow:visible;enable-background:accumulate"
       d="m 120.73848,1042.4626 4.15425,0 0,9.9073 -4.15425,0 z"
       id="rect3820"
       inkscape:connector-curvature="0"
       sodipodi:nodetypes="ccccc" />
    <path
       style="color:#000000;fill:#454837;fill-opacity:1;fill-rule:evenodd;stroke:none;stroke-width:1px;marker:none;visibility:visible;display:inline;overflow:visible;enable-background:accumulate"
       d="m 82.554718,1044.6724 38.183772,0 0,7.6976 -38.183772,0 z"
       id="rect3822"
       inkscape:connector-curvature="0"
       sodipodi:nodetypes="ccccc" />
    <rect
       style="color:#000000;fill:#8a916f;fill-opacity:1;fill-rule:evenodd;stroke:none;stroke-width:1px;marker:none;visibility:visible;display:inline;overflow:visible;enable-background:accumulate"
       id="rect3824"
       width="38.183777"
       height="1.3258326"
       x="82.554718"
       y="1044.6724" />
  </g>
</svg>
